<?xml version="1.0" encoding="UTF-8"?>
<svg version="1.1" xmlns="http://www.w3.org/2000/svg" width="800" height="800">
<path d="M0 0 C4.96701126 0.00464541 9.93400884 0.0051095 14.90102166 0.00296928 C15.62060239 0.00266281 16.34018311 0.00235635 17.08156931 0.00204059 C18.54549164 0.00140085 20.00941396 0.00075241 21.47333628 0.00009541 C35.05201838 -0.00554475 48.63067305 0.00084897 62.20935065 0.01169614 C73.74274726 0.0206258 85.27610355 0.01907194 96.80949944 0.00985862 C110.35505266 -0.00095775 123.9005821 -0.00499603 137.44613904 0.00108315 C138.90328822 0.00171994 140.36043741 0.00234869 141.8175866 0.00296928 C142.89171041 0.00343211 142.89171041 0.00343211 143.98753369 0.00390428 C148.92167445 0.00559759 153.85579935 0.00275173 158.78993767 -0.00198983 C323.35254733 -0.14611675 323.35254733 -0.14611675 380.21867913 52.31747581 C381.95271671 53.89962689 383.70629795 55.38006962 385.54680413 56.83310081 C389.21786501 60.0146869 392.23430041 63.56160037 395.35930413 67.27060081 C396.10051507 68.11235862 396.84172601 68.95411644 397.60539788 69.82138206 C405.03815976 78.419601 411.24362347 87.70475743 417.35930413 97.27060081 C418.36670647 98.81360862 418.36670647 98.81360862 419.39446038 100.38778831 C439.34283556 132.46877437 442.82337361 172.81094544 444.46770257 209.64950706 C444.50962715 210.56957605 444.55155174 211.48964504 444.59474677 212.43759491 C445.72198167 237.9171053 445.65440068 263.41221226 445.62990494 288.91129668 C445.62525953 293.87830794 445.62479544 298.84530552 445.62693566 303.81231834 C445.62724213 304.53189907 445.62754859 305.25147979 445.62786435 305.99286599 C445.62850409 307.45678832 445.62915253 308.92071064 445.62980953 310.38463296 C445.63544969 323.96331507 445.62905597 337.54196973 445.6182088 351.12064733 C445.60927915 362.65404394 445.610833 374.18740023 445.62004632 385.72079612 C445.63086269 399.26634934 445.63490097 412.81187878 445.62882179 426.35743572 C445.628185 427.8145849 445.62755625 429.27173409 445.62693566 430.72888328 C445.62662711 431.44496582 445.62631856 432.16104836 445.62600066 432.89883037 C445.62430735 437.83297113 445.62715321 442.76709603 445.63189477 447.70123436 C445.77602169 612.26384401 445.77602169 612.26384401 393.31242913 669.12997581 C391.73027805 670.86401339 390.24983532 672.61759463 388.79680413 674.45810081 C385.61521804 678.12916169 382.06830457 681.14559709 378.35930413 684.27060081 C377.51754632 685.01181175 376.67578851 685.75302269 375.80852288 686.51669456 C367.21030394 693.94945644 357.92514751 700.15492015 348.35930413 706.27060081 C346.81629632 707.27800315 346.81629632 707.27800315 345.24211663 708.30575706 C313.16113057 728.25413224 272.8189595 731.73467029 235.98039788 733.37899925 C235.06032889 733.42092383 234.1402599 733.46284842 233.19231004 733.50604345 C207.71279965 734.63327835 182.21769268 734.56569737 156.71860826 734.54120162 C151.751597 734.53655621 146.78459942 734.53609212 141.8175866 734.53823234 C141.09800587 734.53853881 140.37842515 734.53884527 139.63703895 734.53916103 C138.17311662 734.53980077 136.7091943 734.54044921 135.24527198 734.54110621 C121.66658988 734.54674637 108.08793521 734.54035265 94.50925761 734.52950548 C82.975861 734.52057583 71.44250471 734.52212968 59.90910882 734.531343 C46.3635556 734.54215937 32.81802616 734.54619765 19.27246922 734.54011847 C17.81532004 734.53948168 16.35817085 734.53885293 14.90102166 734.53823234 C14.18493912 734.53792379 13.46885658 734.53761524 12.73107457 734.53729734 C7.79693381 734.53560403 2.86280892 734.53844989 -2.07132941 734.54319145 C-166.63393907 734.68731837 -166.63393907 734.68731837 -223.50007087 682.22372581 C-225.23410845 680.64157473 -226.98768969 679.16113201 -228.82819587 677.70810081 C-232.49925675 674.52651472 -235.51569215 670.97960125 -238.64069587 667.27060081 C-239.38190681 666.428843 -240.12311774 665.58708519 -240.88678962 664.71981956 C-248.3195515 656.12160062 -254.52501521 646.83644419 -260.64069587 637.27060081 C-261.31229743 636.24192894 -261.98389899 635.21325706 -262.67585212 634.15341331 C-282.6242273 602.07242726 -286.10476535 561.73025618 -287.74909431 524.89169456 C-287.79101889 523.97162557 -287.83294348 523.05155658 -287.87613851 522.10360672 C-289.00337341 496.62409633 -288.93579242 471.12898936 -288.91129668 445.62990494 C-288.90665127 440.66289368 -288.90618718 435.6958961 -288.9083274 430.72888328 C-288.90863387 430.00930256 -288.90894033 429.28972183 -288.90925609 428.54833563 C-288.90989583 427.0844133 -288.91054427 425.62049098 -288.91120127 424.15656866 C-288.91684143 410.57788656 -288.91044771 396.99923189 -288.89960054 383.4205543 C-288.89067089 371.88715768 -288.89222474 360.35380139 -288.90143806 348.8204055 C-288.91225443 335.27485229 -288.91629271 321.72932284 -288.91021353 308.1837659 C-288.90957674 306.72661672 -288.90894799 305.26946753 -288.9083274 303.81231834 C-288.90801885 303.0962358 -288.9077103 302.38015326 -288.9073924 301.64237125 C-288.90569909 296.7082305 -288.90854495 291.7741056 -288.91328651 286.83996727 C-289.05741343 122.27735761 -289.05741343 122.27735761 -236.59382087 65.41122581 C-235.01166979 63.67718823 -233.53122706 61.92360699 -232.07819587 60.08310081 C-228.89660978 56.41203993 -225.34969631 53.39560453 -221.64069587 50.27060081 C-220.79893806 49.52938987 -219.95718024 48.78817894 -219.08991462 48.02450706 C-210.49169568 40.59174518 -201.20653925 34.38628147 -191.64069587 28.27060081 C-190.61202399 27.59899925 -189.58335212 26.92739769 -188.52350837 26.23544456 C-156.44252231 6.28706938 -116.10035124 2.80653133 -79.26178962 1.16220237 C-78.34172063 1.12027779 -77.42165164 1.0783532 -76.47370178 1.03515817 C-50.99419139 -0.09207673 -25.49908442 -0.02449574 0 0 Z M-18.32337409 67.61847831 C-21.45778125 67.64510876 -24.59219776 67.66891387 -27.72663337 67.69192649 C-110.40827487 66.73539181 -110.40827487 66.73539181 -180.64069587 105.27060081 C-181.43733649 105.99247581 -182.23397712 106.71435081 -183.05475837 107.45810081 C-215.37812335 137.8318025 -219.05230005 180.36142854 -220.64069587 222.27060081 C-221.07010913 236.26375883 -221.13921608 250.26726793 -221.24199134 264.26577903 C-221.26612287 267.45198014 -221.29326031 270.63814275 -221.3212989 273.82431175 C-221.87687232 337.20184108 -221.85054538 400.57588848 -221.29281837 463.95327903 C-221.26618792 467.08768619 -221.24238281 470.2221027 -221.21937019 473.35653831 C-222.17590487 556.03817981 -222.17590487 556.03817981 -183.64069587 626.27060081 C-182.91882087 627.06724144 -182.19694587 627.86388206 -181.45319587 628.68466331 C-151.08462307 661.00257017 -108.54582169 664.69316877 -66.64069587 666.27060081 C-52.45309759 666.70165423 -38.25505874 666.76909078 -24.06214362 666.87189628 C-20.83456088 666.89602038 -17.6070163 666.92315549 -14.3794654 666.95120384 C48.54058877 667.49615481 111.45543571 667.46951552 174.37535638 666.92272331 C177.55147103 666.89608585 180.72759489 666.87228132 183.90373772 666.84927513 C266.86730728 667.86976746 266.86730728 667.86976746 337.35930413 629.27060081 C338.15594476 628.54872581 338.95258538 627.82685081 339.77336663 627.08310081 C372.09127349 596.71452801 375.78187209 554.17572663 377.35930413 512.27060081 C377.79035755 498.08300254 377.8577941 483.88496368 377.9605996 469.69204856 C377.9847237 466.46446582 378.01185881 463.23692124 378.03990716 460.00937034 C378.58485813 397.08931617 378.55821884 334.17446924 378.01142663 271.25454856 C377.98478917 268.07843392 377.96098464 264.90231005 377.93797845 261.72616722 C378.95847078 178.76259767 378.95847078 178.76259767 340.35930413 108.27060081 C339.63742913 107.47396019 338.91555413 106.67731956 338.17180413 105.85653831 C307.79810244 73.53317334 265.2684764 69.85899663 223.35930413 68.27060081 C209.36614612 67.84118755 195.36263701 67.7720806 181.36412591 67.66930534 C178.1779248 67.64517381 174.99176219 67.61803637 171.80559319 67.58999778 C108.42806386 67.03442436 45.05401646 67.0607513 -18.32337409 67.61847831 Z " fill="#1877F2" transform="translate(321.64069586992264,32.72939918935299)"/>
<path d="M0 0 C130.35 0 260.7 0 395 0 C395 17.49 395 34.98 395 53 C264.65 53 134.3 53 0 53 C0 35.51 0 18.02 0 0 Z " fill="#1877F2" transform="translate(241,549)"/>
<path d="M0 0 C130.35 0 260.7 0 395 0 C395 17.49 395 34.98 395 53 C264.65 53 134.3 53 0 53 C0 35.51 0 18.02 0 0 Z " fill="#1877F2" transform="translate(164,432)"/>
<path d="M0 0 C130.35 0 260.7 0 395 0 C395 17.49 395 34.98 395 53 C264.65 53 134.3 53 0 53 C0 35.51 0 18.02 0 0 Z " fill="#1877F2" transform="translate(241,315)"/>
<path d="M0 0 C130.35 0 260.7 0 395 0 C395 17.49 395 34.98 395 53 C264.65 53 134.3 53 0 53 C0 35.51 0 18.02 0 0 Z " fill="#1877F2" transform="translate(164,198)"/>
</svg>
